<mxfile host="app.diagrams.net" agent="Mozilla/5.0 (Windows NT 10.0; Win64; x64) AppleWebKit/537.36 (KHTML, like Gecko) Chrome/131.0.0.0 Safari/537.36" version="25.0.1">
  <diagram name="Seite-1" id="lm_aJWa30WUfAb6C7UiW">
    <mxGraphModel dx="2142" dy="680" grid="1" gridSize="10" guides="1" tooltips="1" connect="1" arrows="1" fold="1" page="1" pageScale="1" pageWidth="827" pageHeight="1169" math="0" shadow="0">
      <root>
        <mxCell id="0" />
        <mxCell id="1" parent="0" />
        <mxCell id="s8l8JEx9OvbZ1y-j2XL--1" value="Datamanager" style="swimlane;fontStyle=1;align=center;verticalAlign=top;childLayout=stackLayout;horizontal=1;startSize=26;horizontalStack=0;resizeParent=1;resizeParentMax=0;resizeLast=0;collapsible=1;marginBottom=0;whiteSpace=wrap;html=1;" vertex="1" parent="1">
          <mxGeometry x="140" y="80" width="160" height="100" as="geometry" />
        </mxCell>
        <mxCell id="s8l8JEx9OvbZ1y-j2XL--3" value="" style="line;strokeWidth=1;fillColor=none;align=left;verticalAlign=middle;spacingTop=-1;spacingLeft=3;spacingRight=3;rotatable=0;labelPosition=right;points=[];portConstraint=eastwest;strokeColor=inherit;" vertex="1" parent="s8l8JEx9OvbZ1y-j2XL--1">
          <mxGeometry y="26" width="160" height="8" as="geometry" />
        </mxCell>
        <mxCell id="s8l8JEx9OvbZ1y-j2XL--4" value="&lt;u&gt;+ lese(String): List&amp;lt;String&amp;gt;&lt;/u&gt;&lt;div&gt;&lt;u&gt;+ speicher (Ergebnis, String): boolean&lt;/u&gt;&lt;/div&gt;" style="text;strokeColor=none;fillColor=none;align=left;verticalAlign=top;spacingLeft=4;spacingRight=4;overflow=hidden;rotatable=0;points=[[0,0.5],[1,0.5]];portConstraint=eastwest;whiteSpace=wrap;html=1;" vertex="1" parent="s8l8JEx9OvbZ1y-j2XL--1">
          <mxGeometry y="34" width="160" height="66" as="geometry" />
        </mxCell>
        <mxCell id="s8l8JEx9OvbZ1y-j2XL--53" style="edgeStyle=orthogonalEdgeStyle;rounded=0;orthogonalLoop=1;jettySize=auto;html=1;entryX=0.364;entryY=0;entryDx=0;entryDy=0;entryPerimeter=0;" edge="1" parent="1" source="s8l8JEx9OvbZ1y-j2XL--5" target="s8l8JEx9OvbZ1y-j2XL--13">
          <mxGeometry relative="1" as="geometry">
            <mxPoint x="240" y="290" as="targetPoint" />
            <Array as="points">
              <mxPoint x="220" y="320" />
              <mxPoint x="220" y="320" />
            </Array>
          </mxGeometry>
        </mxCell>
        <mxCell id="s8l8JEx9OvbZ1y-j2XL--5" value="Main" style="swimlane;fontStyle=1;align=center;verticalAlign=top;childLayout=stackLayout;horizontal=1;startSize=26;horizontalStack=0;resizeParent=1;resizeParentMax=0;resizeLast=0;collapsible=1;marginBottom=0;whiteSpace=wrap;html=1;" vertex="1" parent="1">
          <mxGeometry x="140" y="210" width="160" height="60" as="geometry" />
        </mxCell>
        <mxCell id="s8l8JEx9OvbZ1y-j2XL--7" value="" style="line;strokeWidth=1;fillColor=none;align=left;verticalAlign=middle;spacingTop=-1;spacingLeft=3;spacingRight=3;rotatable=0;labelPosition=right;points=[];portConstraint=eastwest;strokeColor=inherit;" vertex="1" parent="s8l8JEx9OvbZ1y-j2XL--5">
          <mxGeometry y="26" width="160" height="8" as="geometry" />
        </mxCell>
        <mxCell id="s8l8JEx9OvbZ1y-j2XL--8" value="&lt;u&gt;+ main(String[]): void&lt;/u&gt;" style="text;strokeColor=none;fillColor=none;align=left;verticalAlign=top;spacingLeft=4;spacingRight=4;overflow=hidden;rotatable=0;points=[[0,0.5],[1,0.5]];portConstraint=eastwest;whiteSpace=wrap;html=1;" vertex="1" parent="s8l8JEx9OvbZ1y-j2XL--5">
          <mxGeometry y="34" width="160" height="26" as="geometry" />
        </mxCell>
        <mxCell id="s8l8JEx9OvbZ1y-j2XL--9" value="PermutationUtil" style="swimlane;fontStyle=1;align=center;verticalAlign=top;childLayout=stackLayout;horizontal=1;startSize=26;horizontalStack=0;resizeParent=1;resizeParentMax=0;resizeLast=0;collapsible=1;marginBottom=0;whiteSpace=wrap;html=1;" vertex="1" parent="1">
          <mxGeometry x="350" y="180" width="270" height="70" as="geometry" />
        </mxCell>
        <mxCell id="s8l8JEx9OvbZ1y-j2XL--11" value="" style="line;strokeWidth=1;fillColor=none;align=left;verticalAlign=middle;spacingTop=-1;spacingLeft=3;spacingRight=3;rotatable=0;labelPosition=right;points=[];portConstraint=eastwest;strokeColor=inherit;" vertex="1" parent="s8l8JEx9OvbZ1y-j2XL--9">
          <mxGeometry y="26" width="270" height="8" as="geometry" />
        </mxCell>
        <mxCell id="s8l8JEx9OvbZ1y-j2XL--12" value="&lt;u&gt;+ permutiere(List&amp;lt;Auftrag&amp;gt;): List&amp;lt;List&amp;lt;Auftrag&amp;gt;&amp;gt;&lt;/u&gt;" style="text;strokeColor=none;fillColor=none;align=left;verticalAlign=top;spacingLeft=4;spacingRight=4;overflow=hidden;rotatable=0;points=[[0,0.5],[1,0.5]];portConstraint=eastwest;whiteSpace=wrap;html=1;" vertex="1" parent="s8l8JEx9OvbZ1y-j2XL--9">
          <mxGeometry y="34" width="270" height="36" as="geometry" />
        </mxCell>
        <mxCell id="s8l8JEx9OvbZ1y-j2XL--56" style="edgeStyle=orthogonalEdgeStyle;rounded=0;orthogonalLoop=1;jettySize=auto;html=1;exitX=0.884;exitY=0.005;exitDx=0;exitDy=0;exitPerimeter=0;entryX=0.151;entryY=1.101;entryDx=0;entryDy=0;entryPerimeter=0;" edge="1" parent="1" source="s8l8JEx9OvbZ1y-j2XL--13" target="s8l8JEx9OvbZ1y-j2XL--12">
          <mxGeometry relative="1" as="geometry">
            <mxPoint x="140" y="412" as="sourcePoint" />
            <Array as="points">
              <mxPoint x="392" y="320" />
              <mxPoint x="391" y="254" />
            </Array>
          </mxGeometry>
        </mxCell>
        <mxCell id="s8l8JEx9OvbZ1y-j2XL--13" value="Solver" style="swimlane;fontStyle=1;align=center;verticalAlign=top;childLayout=stackLayout;horizontal=1;startSize=26;horizontalStack=0;resizeParent=1;resizeParentMax=0;resizeLast=0;collapsible=1;marginBottom=0;whiteSpace=wrap;html=1;" vertex="1" parent="1">
          <mxGeometry x="100" y="330" width="330" height="170" as="geometry" />
        </mxCell>
        <mxCell id="s8l8JEx9OvbZ1y-j2XL--14" value="- auftraege: Auftragsliste" style="text;strokeColor=none;fillColor=none;align=left;verticalAlign=top;spacingLeft=4;spacingRight=4;overflow=hidden;rotatable=0;points=[[0,0.5],[1,0.5]];portConstraint=eastwest;whiteSpace=wrap;html=1;" vertex="1" parent="s8l8JEx9OvbZ1y-j2XL--13">
          <mxGeometry y="26" width="330" height="26" as="geometry" />
        </mxCell>
        <mxCell id="s8l8JEx9OvbZ1y-j2XL--15" value="" style="line;strokeWidth=1;fillColor=none;align=left;verticalAlign=middle;spacingTop=-1;spacingLeft=3;spacingRight=3;rotatable=0;labelPosition=right;points=[];portConstraint=eastwest;strokeColor=inherit;" vertex="1" parent="s8l8JEx9OvbZ1y-j2XL--13">
          <mxGeometry y="52" width="330" height="8" as="geometry" />
        </mxCell>
        <mxCell id="s8l8JEx9OvbZ1y-j2XL--16" value="&lt;div&gt;+ Solver(List&amp;lt;String&amp;gt;)&lt;/div&gt;+ optimiere(): Ergebnis&lt;div&gt;- validiere(Auftrag, List&amp;lt;Punkt&amp;gt;)&lt;/div&gt;&lt;div&gt;- erstelleErgebnis(List&amp;lt;Auftrag&amp;gt;)&lt;/div&gt;&lt;div&gt;- teileInTeilListen(List&amp;lt;Auftrag&amp;gt;,int): List&amp;lt;List&amp;lt;Auftrag&amp;gt;&amp;gt;&lt;/div&gt;&lt;div&gt;- kombiniereErgebnis(List&amp;lt;Ergebnis&amp;gt;):Ergebnis&lt;/div&gt;&lt;div&gt;- berechneBestesErgebnis(List&amp;lt;Auftrag&amp;gt;):Ergebnis&lt;/div&gt;" style="text;strokeColor=none;fillColor=none;align=left;verticalAlign=top;spacingLeft=4;spacingRight=4;overflow=hidden;rotatable=0;points=[[0,0.5],[1,0.5]];portConstraint=eastwest;whiteSpace=wrap;html=1;" vertex="1" parent="s8l8JEx9OvbZ1y-j2XL--13">
          <mxGeometry y="60" width="330" height="110" as="geometry" />
        </mxCell>
        <mxCell id="s8l8JEx9OvbZ1y-j2XL--17" value="Auftragsliste" style="swimlane;fontStyle=1;align=center;verticalAlign=top;childLayout=stackLayout;horizontal=1;startSize=26;horizontalStack=0;resizeParent=1;resizeParentMax=0;resizeLast=0;collapsible=1;marginBottom=0;whiteSpace=wrap;html=1;" vertex="1" parent="1">
          <mxGeometry x="520" y="355" width="200" height="180" as="geometry" />
        </mxCell>
        <mxCell id="s8l8JEx9OvbZ1y-j2XL--18" value="- materialbreite: int&lt;div&gt;- optimierungstiefe: int&lt;/div&gt;&lt;div&gt;- auftraege: List&amp;lt;Auftrag&amp;gt;&lt;/div&gt;&lt;div&gt;- titel: String&lt;/div&gt;" style="text;strokeColor=none;fillColor=none;align=left;verticalAlign=top;spacingLeft=4;spacingRight=4;overflow=hidden;rotatable=0;points=[[0,0.5],[1,0.5]];portConstraint=eastwest;whiteSpace=wrap;html=1;" vertex="1" parent="s8l8JEx9OvbZ1y-j2XL--17">
          <mxGeometry y="26" width="200" height="64" as="geometry" />
        </mxCell>
        <mxCell id="s8l8JEx9OvbZ1y-j2XL--19" value="" style="line;strokeWidth=1;fillColor=none;align=left;verticalAlign=middle;spacingTop=-1;spacingLeft=3;spacingRight=3;rotatable=0;labelPosition=right;points=[];portConstraint=eastwest;strokeColor=inherit;" vertex="1" parent="s8l8JEx9OvbZ1y-j2XL--17">
          <mxGeometry y="90" width="200" height="8" as="geometry" />
        </mxCell>
        <mxCell id="s8l8JEx9OvbZ1y-j2XL--20" value="+ Auftragsliste&lt;span style=&quot;background-color: initial;&quot;&gt;(List&amp;lt;String&amp;gt;)&lt;/span&gt;&lt;div&gt;&lt;span style=&quot;background-color: initial;&quot;&gt;+ getOptimierungstiefe():int&lt;/span&gt;&lt;/div&gt;&lt;div&gt;&lt;span style=&quot;background-color: initial;&quot;&gt;+ getMaterialbreite():int&lt;/span&gt;&lt;/div&gt;&lt;div&gt;&lt;span style=&quot;background-color: initial;&quot;&gt;+ getAuftraege():List&amp;lt;Auftrag&amp;gt;&lt;/span&gt;&lt;/div&gt;&lt;div&gt;&lt;span style=&quot;background-color: initial;&quot;&gt;+ getTitel(): String&lt;/span&gt;&lt;/div&gt;" style="text;strokeColor=none;fillColor=none;align=left;verticalAlign=top;spacingLeft=4;spacingRight=4;overflow=hidden;rotatable=0;points=[[0,0.5],[1,0.5]];portConstraint=eastwest;whiteSpace=wrap;html=1;" vertex="1" parent="s8l8JEx9OvbZ1y-j2XL--17">
          <mxGeometry y="98" width="200" height="82" as="geometry" />
        </mxCell>
        <mxCell id="s8l8JEx9OvbZ1y-j2XL--22" value="Auftrag" style="swimlane;fontStyle=1;align=center;verticalAlign=top;childLayout=stackLayout;horizontal=1;startSize=26;horizontalStack=0;resizeParent=1;resizeParentMax=0;resizeLast=0;collapsible=1;marginBottom=0;whiteSpace=wrap;html=1;" vertex="1" parent="1">
          <mxGeometry x="520" y="620" width="200" height="240" as="geometry" />
        </mxCell>
        <mxCell id="s8l8JEx9OvbZ1y-j2XL--23" value="- breite: int&lt;div&gt;- hoehe: int&lt;/div&gt;&lt;div&gt;- id: int&lt;/div&gt;&lt;div&gt;- beschreibung: String&lt;/div&gt;" style="text;strokeColor=none;fillColor=none;align=left;verticalAlign=top;spacingLeft=4;spacingRight=4;overflow=hidden;rotatable=0;points=[[0,0.5],[1,0.5]];portConstraint=eastwest;whiteSpace=wrap;html=1;" vertex="1" parent="s8l8JEx9OvbZ1y-j2XL--22">
          <mxGeometry y="26" width="200" height="74" as="geometry" />
        </mxCell>
        <mxCell id="s8l8JEx9OvbZ1y-j2XL--24" value="" style="line;strokeWidth=1;fillColor=none;align=left;verticalAlign=middle;spacingTop=-1;spacingLeft=3;spacingRight=3;rotatable=0;labelPosition=right;points=[];portConstraint=eastwest;strokeColor=inherit;" vertex="1" parent="s8l8JEx9OvbZ1y-j2XL--22">
          <mxGeometry y="100" width="200" height="8" as="geometry" />
        </mxCell>
        <mxCell id="s8l8JEx9OvbZ1y-j2XL--25" value="+ Auftrag(int, int, int, String)&lt;div&gt;+ getBreite():int&lt;/div&gt;&lt;div&gt;+ setBreite():int&lt;/div&gt;&lt;div&gt;+ getHoehe():int&lt;/div&gt;&lt;div&gt;+ setHoehe():int&lt;/div&gt;&lt;div&gt;+ getId(): int&lt;/div&gt;&lt;div&gt;+ getBeschreibung(): String&lt;/div&gt;&lt;div&gt;+ aendereOrientierung():boolean&lt;/div&gt;" style="text;strokeColor=none;fillColor=none;align=left;verticalAlign=top;spacingLeft=4;spacingRight=4;overflow=hidden;rotatable=0;points=[[0,0.5],[1,0.5]];portConstraint=eastwest;whiteSpace=wrap;html=1;" vertex="1" parent="s8l8JEx9OvbZ1y-j2XL--22">
          <mxGeometry y="108" width="200" height="132" as="geometry" />
        </mxCell>
        <mxCell id="s8l8JEx9OvbZ1y-j2XL--26" value="Punkt" style="swimlane;fontStyle=1;align=center;verticalAlign=top;childLayout=stackLayout;horizontal=1;startSize=26;horizontalStack=0;resizeParent=1;resizeParentMax=0;resizeLast=0;collapsible=1;marginBottom=0;whiteSpace=wrap;html=1;" vertex="1" parent="1">
          <mxGeometry x="280" y="560" width="210" height="260" as="geometry" />
        </mxCell>
        <mxCell id="s8l8JEx9OvbZ1y-j2XL--27" value="- x:int&lt;div&gt;- y:int&lt;/div&gt;&lt;div&gt;- beschreibung: String&lt;/div&gt;&lt;div&gt;- andockpunkt: boolean&amp;nbsp;&lt;/div&gt;&lt;div&gt;- besitzer: int&lt;/div&gt;" style="text;strokeColor=none;fillColor=none;align=left;verticalAlign=top;spacingLeft=4;spacingRight=4;overflow=hidden;rotatable=0;points=[[0,0.5],[1,0.5]];portConstraint=eastwest;whiteSpace=wrap;html=1;" vertex="1" parent="s8l8JEx9OvbZ1y-j2XL--26">
          <mxGeometry y="26" width="210" height="74" as="geometry" />
        </mxCell>
        <mxCell id="s8l8JEx9OvbZ1y-j2XL--28" value="" style="line;strokeWidth=1;fillColor=none;align=left;verticalAlign=middle;spacingTop=-1;spacingLeft=3;spacingRight=3;rotatable=0;labelPosition=right;points=[];portConstraint=eastwest;strokeColor=inherit;" vertex="1" parent="s8l8JEx9OvbZ1y-j2XL--26">
          <mxGeometry y="100" width="210" height="8" as="geometry" />
        </mxCell>
        <mxCell id="s8l8JEx9OvbZ1y-j2XL--29" value="+ Punkt( int, int, String, boolean, int)&lt;div&gt;+ setAndockpunkt(boolean)&lt;/div&gt;&lt;div&gt;+ setBeschreibung(String)&lt;/div&gt;&lt;div&gt;+ getAndockpunkt():boolean&lt;/div&gt;&lt;div&gt;+ getBeschreibung():String&lt;/div&gt;&lt;div&gt;+ getBesitzer(): int&lt;/div&gt;&lt;div&gt;+ getX():int&lt;/div&gt;&lt;div&gt;+ getY():int&lt;/div&gt;&lt;div&gt;+ toString():String&lt;/div&gt;" style="text;strokeColor=none;fillColor=none;align=left;verticalAlign=top;spacingLeft=4;spacingRight=4;overflow=hidden;rotatable=0;points=[[0,0.5],[1,0.5]];portConstraint=eastwest;whiteSpace=wrap;html=1;" vertex="1" parent="s8l8JEx9OvbZ1y-j2XL--26">
          <mxGeometry y="108" width="210" height="152" as="geometry" />
        </mxCell>
        <mxCell id="s8l8JEx9OvbZ1y-j2XL--33" value="Flaeche" style="swimlane;fontStyle=1;align=center;verticalAlign=top;childLayout=stackLayout;horizontal=1;startSize=26;horizontalStack=0;resizeParent=1;resizeParentMax=0;resizeLast=0;collapsible=1;marginBottom=0;whiteSpace=wrap;html=1;" vertex="1" parent="1">
          <mxGeometry x="10" y="880" width="240" height="240" as="geometry" />
        </mxCell>
        <mxCell id="s8l8JEx9OvbZ1y-j2XL--34" value="- posX: int&lt;div&gt;- posY: int&lt;/div&gt;&lt;div&gt;- auftrag:Auftrag&lt;/div&gt;" style="text;strokeColor=none;fillColor=none;align=left;verticalAlign=top;spacingLeft=4;spacingRight=4;overflow=hidden;rotatable=0;points=[[0,0.5],[1,0.5]];portConstraint=eastwest;whiteSpace=wrap;html=1;" vertex="1" parent="s8l8JEx9OvbZ1y-j2XL--33">
          <mxGeometry y="26" width="240" height="64" as="geometry" />
        </mxCell>
        <mxCell id="s8l8JEx9OvbZ1y-j2XL--35" value="" style="line;strokeWidth=1;fillColor=none;align=left;verticalAlign=middle;spacingTop=-1;spacingLeft=3;spacingRight=3;rotatable=0;labelPosition=right;points=[];portConstraint=eastwest;strokeColor=inherit;" vertex="1" parent="s8l8JEx9OvbZ1y-j2XL--33">
          <mxGeometry y="90" width="240" height="8" as="geometry" />
        </mxCell>
        <mxCell id="s8l8JEx9OvbZ1y-j2XL--36" value="+ Flaeche(Punkt, Auftrag)&lt;div&gt;+ toString(): String&lt;/div&gt;&lt;div&gt;+ getMaxY(): int&lt;/div&gt;&lt;div&gt;+ getAreal(): int&lt;/div&gt;&lt;div&gt;+ getPosX(): int&lt;/div&gt;&lt;div&gt;+ getPosY(): int&lt;/div&gt;&lt;div&gt;+ getHoehe():int&lt;/div&gt;&lt;div&gt;+ getBreite(): int&lt;/div&gt;&lt;div&gt;+ ueberlapptMit(Flaeche): boolean&amp;nbsp;&lt;/div&gt;" style="text;strokeColor=none;fillColor=none;align=left;verticalAlign=top;spacingLeft=4;spacingRight=4;overflow=hidden;rotatable=0;points=[[0,0.5],[1,0.5]];portConstraint=eastwest;whiteSpace=wrap;html=1;" vertex="1" parent="s8l8JEx9OvbZ1y-j2XL--33">
          <mxGeometry y="98" width="240" height="142" as="geometry" />
        </mxCell>
        <mxCell id="s8l8JEx9OvbZ1y-j2XL--37" value="Ergebnis" style="swimlane;fontStyle=1;align=center;verticalAlign=top;childLayout=stackLayout;horizontal=1;startSize=26;horizontalStack=0;resizeParent=1;resizeParentMax=0;resizeLast=0;collapsible=1;marginBottom=0;whiteSpace=wrap;html=1;" vertex="1" parent="1">
          <mxGeometry x="-10" y="610" width="280" height="190" as="geometry" />
        </mxCell>
        <mxCell id="s8l8JEx9OvbZ1y-j2XL--38" value="- benoetigteLaenge: double&lt;div&gt;- genutzteFlaeche: double&lt;/div&gt;&lt;div&gt;- positionierung: List&amp;lt;Flaeche&amp;gt;&lt;/div&gt;&lt;div&gt;- punkte: List&amp;lt;Punkt&amp;gt;&lt;/div&gt;&lt;div&gt;- titel: String&lt;/div&gt;" style="text;strokeColor=none;fillColor=none;align=left;verticalAlign=top;spacingLeft=4;spacingRight=4;overflow=hidden;rotatable=0;points=[[0,0.5],[1,0.5]];portConstraint=eastwest;whiteSpace=wrap;html=1;" vertex="1" parent="s8l8JEx9OvbZ1y-j2XL--37">
          <mxGeometry y="26" width="280" height="84" as="geometry" />
        </mxCell>
        <mxCell id="s8l8JEx9OvbZ1y-j2XL--39" value="" style="line;strokeWidth=1;fillColor=none;align=left;verticalAlign=middle;spacingTop=-1;spacingLeft=3;spacingRight=3;rotatable=0;labelPosition=right;points=[];portConstraint=eastwest;strokeColor=inherit;" vertex="1" parent="s8l8JEx9OvbZ1y-j2XL--37">
          <mxGeometry y="110" width="280" height="8" as="geometry" />
        </mxCell>
        <mxCell id="s8l8JEx9OvbZ1y-j2XL--40" value="+ Ergebnis (List&amp;lt;Auftrag&amp;gt;, List&amp;lt;Punkt&amp;gt;, int, String)&lt;div&gt;+ getTitel():String&lt;/div&gt;&lt;div&gt;+ getPunkte():List&amp;lt;Punkt&amp;gt;&lt;/div&gt;&lt;div&gt;+ getBenoetigteLaenge():double&lt;/div&gt;&lt;div&gt;&lt;br&gt;&lt;/div&gt;" style="text;strokeColor=none;fillColor=none;align=left;verticalAlign=top;spacingLeft=4;spacingRight=4;overflow=hidden;rotatable=0;points=[[0,0.5],[1,0.5]];portConstraint=eastwest;whiteSpace=wrap;html=1;" vertex="1" parent="s8l8JEx9OvbZ1y-j2XL--37">
          <mxGeometry y="118" width="280" height="72" as="geometry" />
        </mxCell>
        <mxCell id="s8l8JEx9OvbZ1y-j2XL--41" value="n .. 1" style="endArrow=open;html=1;endSize=12;startArrow=diamondThin;startSize=14;startFill=1;edgeStyle=orthogonalEdgeStyle;align=left;verticalAlign=bottom;rounded=0;entryX=0.5;entryY=0;entryDx=0;entryDy=0;exitX=0.497;exitY=0.993;exitDx=0;exitDy=0;exitPerimeter=0;" edge="1" parent="1" source="s8l8JEx9OvbZ1y-j2XL--40" target="s8l8JEx9OvbZ1y-j2XL--33">
          <mxGeometry x="0.4354" y="26" relative="1" as="geometry">
            <mxPoint x="-10" y="640" as="sourcePoint" />
            <mxPoint x="300" y="610" as="targetPoint" />
            <mxPoint as="offset" />
          </mxGeometry>
        </mxCell>
        <mxCell id="s8l8JEx9OvbZ1y-j2XL--42" value="berechnet" style="endArrow=block;endFill=1;html=1;edgeStyle=orthogonalEdgeStyle;align=left;verticalAlign=top;rounded=0;exitX=0.268;exitY=1.01;exitDx=0;exitDy=0;exitPerimeter=0;entryX=0.5;entryY=0;entryDx=0;entryDy=0;" edge="1" parent="1" source="s8l8JEx9OvbZ1y-j2XL--16" target="s8l8JEx9OvbZ1y-j2XL--37">
          <mxGeometry x="0.238" y="-2" relative="1" as="geometry">
            <mxPoint x="140" y="610" as="sourcePoint" />
            <mxPoint x="300" y="610" as="targetPoint" />
            <Array as="points">
              <mxPoint x="130" y="501" />
            </Array>
            <mxPoint as="offset" />
          </mxGeometry>
        </mxCell>
        <mxCell id="s8l8JEx9OvbZ1y-j2XL--43" value="1" style="edgeLabel;resizable=0;html=1;align=left;verticalAlign=bottom;" connectable="0" vertex="1" parent="s8l8JEx9OvbZ1y-j2XL--42">
          <mxGeometry x="-1" relative="1" as="geometry">
            <mxPoint x="-48" y="24" as="offset" />
          </mxGeometry>
        </mxCell>
        <mxCell id="s8l8JEx9OvbZ1y-j2XL--47" value="" style="endArrow=diamondThin;endFill=0;endSize=24;html=1;rounded=0;entryX=1;entryY=0.5;entryDx=0;entryDy=0;exitX=-0.004;exitY=0.075;exitDx=0;exitDy=0;exitPerimeter=0;" edge="1" parent="1" source="s8l8JEx9OvbZ1y-j2XL--17" target="s8l8JEx9OvbZ1y-j2XL--14">
          <mxGeometry width="160" relative="1" as="geometry">
            <mxPoint x="380" y="400" as="sourcePoint" />
            <mxPoint x="540" y="400" as="targetPoint" />
          </mxGeometry>
        </mxCell>
        <mxCell id="s8l8JEx9OvbZ1y-j2XL--48" value="" style="endArrow=diamondThin;endFill=1;endSize=24;html=1;rounded=0;entryX=0.49;entryY=1.008;entryDx=0;entryDy=0;entryPerimeter=0;exitX=0.5;exitY=0;exitDx=0;exitDy=0;" edge="1" parent="1" source="s8l8JEx9OvbZ1y-j2XL--22" target="s8l8JEx9OvbZ1y-j2XL--20">
          <mxGeometry width="160" relative="1" as="geometry">
            <mxPoint x="510" y="570" as="sourcePoint" />
            <mxPoint x="670" y="570" as="targetPoint" />
          </mxGeometry>
        </mxCell>
        <mxCell id="s8l8JEx9OvbZ1y-j2XL--49" value="1" style="text;html=1;align=center;verticalAlign=middle;resizable=0;points=[];autosize=1;strokeColor=none;fillColor=none;" vertex="1" parent="1">
          <mxGeometry x="620" y="535" width="30" height="30" as="geometry" />
        </mxCell>
        <mxCell id="s8l8JEx9OvbZ1y-j2XL--50" value="n" style="text;html=1;align=center;verticalAlign=middle;resizable=0;points=[];autosize=1;strokeColor=none;fillColor=none;" vertex="1" parent="1">
          <mxGeometry x="620" y="590" width="30" height="30" as="geometry" />
        </mxCell>
        <mxCell id="s8l8JEx9OvbZ1y-j2XL--54" style="edgeStyle=orthogonalEdgeStyle;rounded=0;orthogonalLoop=1;jettySize=auto;html=1;entryX=0.5;entryY=1;entryDx=0;entryDy=0;entryPerimeter=0;" edge="1" parent="1" source="s8l8JEx9OvbZ1y-j2XL--5" target="s8l8JEx9OvbZ1y-j2XL--4">
          <mxGeometry relative="1" as="geometry" />
        </mxCell>
        <mxCell id="s8l8JEx9OvbZ1y-j2XL--57" style="edgeStyle=orthogonalEdgeStyle;rounded=0;orthogonalLoop=1;jettySize=auto;html=1;entryX=0.5;entryY=0;entryDx=0;entryDy=0;exitX=0.852;exitY=1.008;exitDx=0;exitDy=0;exitPerimeter=0;" edge="1" parent="1" source="s8l8JEx9OvbZ1y-j2XL--16" target="s8l8JEx9OvbZ1y-j2XL--26">
          <mxGeometry relative="1" as="geometry">
            <Array as="points">
              <mxPoint x="385" y="501" />
            </Array>
          </mxGeometry>
        </mxCell>
      </root>
    </mxGraphModel>
  </diagram>
</mxfile>
